<?xml version="1.0" encoding="utf-8"?>
<!-- Generator: Adobe Illustrator 16.0.3, SVG Export Plug-In . SVG Version: 6.00 Build 0)  -->
<!DOCTYPE svg PUBLIC "-//W3C//DTD SVG 1.1//EN" "http://www.w3.org/Graphics/SVG/1.1/DTD/svg11.dtd">
<svg version="1.1" id="Layer_1" xmlns="http://www.w3.org/2000/svg" xmlns:xlink="http://www.w3.org/1999/xlink" x="0px" y="0px"
	 width="96.805px" height="24px" viewBox="0 0 96.805 24" enable-background="new 0 0 96.805 24" xml:space="preserve">
<g>
	<path fill="#FFFFFF" d="M55.499,19.879c-0.827,0.168-2.087,0.357-3.159,0.357c-2.594,0-3.685-1.861-3.685-4.568v-1.242
		c0-2.968,1.241-4.491,3.685-4.491c0.734,0,1.861,0.113,2.613,0.282V6.514c0-0.188,0.132-0.357,0.32-0.357h0.189
		c0.188,0,0.319,0.17,0.319,0.357v13.007C55.781,19.746,55.724,19.822,55.499,19.879z M54.953,10.912
		c-0.713-0.15-1.879-0.244-2.613-0.244c-2.067,0-2.857,1.278-2.857,3.758v1.242c0,2.424,0.752,3.834,2.857,3.834
		c0.902,0,1.937-0.131,2.613-0.244V10.912z"/>
	<path fill="#FFFFFF" d="M61.117,20.236c-2.574,0-3.871-1.656-3.871-4.494v-1.316c0-2.836,1.297-4.491,3.871-4.491
		c2.575,0,3.873,1.654,3.873,4.491v1.316C64.99,18.58,63.692,20.236,61.117,20.236z M64.163,14.426c0-2.31-0.846-3.758-3.045-3.758
		c-2.199,0-3.044,1.448-3.044,3.758v1.316c0,2.312,0.846,3.76,3.044,3.76c2.199,0,3.045-1.447,3.045-3.76V14.426z"/>
	<path fill="#FFFFFF" d="M73.428,20.123h-0.15c-0.15,0-0.264-0.02-0.356-0.15L69.8,15.611l-3.062,4.361
		c-0.059,0.074-0.131,0.15-0.207,0.15h-0.32c-0.188,0-0.262-0.094-0.262-0.227c0-0.074,0.037-0.188,0.094-0.265l3.309-4.68
		l-3.195-4.473c-0.038-0.057-0.076-0.131-0.076-0.207c0-0.132,0.113-0.244,0.34-0.244h0.111c0.17,0,0.32,0.094,0.357,0.15
		l2.969,4.135l2.877-4.098c0.074-0.112,0.244-0.188,0.356-0.188h0.171c0.205,0,0.28,0.094,0.28,0.226
		c0,0.094-0.058,0.207-0.132,0.319l-3.102,4.416l3.325,4.662c0.039,0.057,0.058,0.133,0.058,0.207
		C73.689,19.99,73.615,20.123,73.428,20.123z"/>
	<path fill="#FFFFFF" d="M81.001,20.123h-0.095c-0.207,0-0.377-0.17-0.377-0.377v-0.469c-0.92,0.508-2.028,0.959-3.193,0.959
		c-1.408,0-2.875-0.68-2.875-3.027v-0.244c0-1.936,1.223-2.895,4.643-2.895h1.446v-0.678c0-1.955-0.546-2.726-2.368-2.726
		c-1.24,0-1.785,0.075-2.668,0.17c-0.188,0.019-0.433,0-0.433-0.282v-0.113c0-0.244,0.149-0.301,0.433-0.338
		c0.789-0.094,1.428-0.169,2.668-0.169c2.537,0,3.195,1.428,3.195,3.458v6.354C81.377,19.953,81.207,20.123,81.001,20.123z
		 M80.55,14.803h-1.446c-2.838,0-3.815,0.564-3.815,2.162v0.244c0,1.748,0.922,2.293,2.049,2.293c1.052,0,1.955-0.281,3.214-0.959
		L80.55,14.803L80.55,14.803z"/>
</g>
<g>
	<circle fill="#ED3724" cx="85.479" cy="2.1" r="2.099"/>
	<circle fill="#ED3724" cx="90.262" cy="13.082" r="1.503"/>
	<circle fill="#ED3724" cx="85.479" cy="9.561" r="1.983"/>
	<circle fill="#ED3724" cx="91.441" cy="6.879" r="2.146"/>
	<circle fill="#ED3724" cx="85.479" cy="17.299" r="1.679"/>
	<circle fill="#ED3724" cx="92.072" cy="18.559" r="1.812"/>
	<circle fill="#ED3724" cx="95.463" cy="12.421" r="1.341"/>
	<circle fill="#ED3724" cx="81.357" cy="6.081" r="1.504"/>
	<circle fill="#ED3724" cx="76.615" cy="5.147" r="1.341"/>
</g>
<g>
	<g>
		<path fill="#ED3724" d="M12.296,19.846H10.29l-0.181-0.664c-0.884,0.582-1.928,0.863-2.912,0.863c-1.786,0-2.549-1.225-2.549-2.91
			c0-1.988,0.863-2.75,2.851-2.75h2.348v-1.025c0-1.083-0.301-1.463-1.866-1.463c-0.883,0-1.847,0.121-2.71,0.3L4.969,10.33
			c0.924-0.281,2.27-0.462,3.353-0.462c3.071,0,3.975,1.084,3.975,3.532L12.296,19.846L12.296,19.846z M7.017,7.659
			C7.96,7.078,8.924,6.435,9.948,5.692l0.964,1.485C9.787,7.92,8.964,8.441,7.9,9.024L7.017,7.659z M9.847,16.15H8.041
			c-0.802,0-1.024,0.223-1.024,0.963c0,0.684,0.222,0.984,0.984,0.984c0.722,0,1.386-0.24,1.846-0.503V16.15z"/>
		<path fill="#ED3724" d="M17.233,17.215c-0.321,0.199-0.581,0.482-0.581,0.783c0,0.26,0.16,0.381,0.542,0.42
			c1.084,0.121,1.687,0.182,2.831,0.301c1.585,0.184,2.087,0.965,2.087,2.369c0,2.09-0.762,2.912-4.416,2.912
			c-1.125,0-2.67-0.16-3.774-0.502l0.301-1.824c1.043,0.258,2.148,0.42,3.292,0.42c1.947,0,2.33-0.141,2.33-0.783
			c0-0.604-0.181-0.703-0.924-0.783c-1.124-0.12-1.586-0.182-2.831-0.319c-1.385-0.162-1.928-0.623-1.928-1.869
			c0-0.803,0.542-1.323,1.024-1.664c-0.904-0.543-1.325-1.446-1.325-2.631V13.12c0.041-2.029,1.104-3.253,3.935-3.253
			c0.662,0,1.184,0.08,1.666,0.201h3.012v1.225c-0.34,0.101-0.743,0.2-1.084,0.301c0.22,0.421,0.341,0.963,0.341,1.526v0.923
			c0,1.988-1.204,3.191-3.934,3.191C17.594,17.234,17.415,17.234,17.233,17.215z M17.796,11.834c-1.205,0-1.626,0.442-1.626,1.366
			v0.743c0,0.963,0.482,1.324,1.626,1.324c1.164,0,1.646-0.382,1.646-1.324V13.2C19.442,12.276,19.021,11.834,17.796,11.834z"/>
		<path fill="#ED3724" d="M27.651,20.045c-3.353,0-4.257-1.846-4.257-3.854V13.72c0-2.006,0.904-3.854,4.257-3.854
			c3.352,0,4.255,1.847,4.255,3.854v2.472C31.906,18.199,31.003,20.045,27.651,20.045z M27.651,11.955
			c-1.306,0-1.807,0.582-1.807,1.686v2.631c0,1.104,0.501,1.687,1.807,1.687c1.304,0,1.806-0.582,1.806-1.687v-2.631
			C29.457,12.537,28.956,11.955,27.651,11.955z"/>
		<path fill="#ED3724" d="M38.469,12.115c-0.944,0.421-1.707,0.863-2.59,1.426v6.305H33.43v-9.778h2.068l0.161,1.084
			c0.542-0.361,1.706-1.043,2.569-1.285L38.469,12.115z"/>
		<path fill="#ED3724" d="M46.859,19.846h-2.007l-0.181-0.664c-0.883,0.582-1.927,0.863-2.911,0.863
			c-1.786,0-2.549-1.225-2.549-2.91c0-1.988,0.863-2.75,2.85-2.75h2.35v-1.025c0-1.083-0.302-1.463-1.868-1.463
			c-0.884,0-1.846,0.121-2.71,0.3l-0.302-1.866c0.924-0.281,2.269-0.462,3.354-0.462c3.071,0,3.975,1.084,3.975,3.532V19.846z
			 M44.411,16.15h-1.808c-0.803,0-1.023,0.223-1.023,0.963c0,0.684,0.221,0.984,0.983,0.984c0.723,0,1.385-0.24,1.848-0.503V16.15z"
			/>
	</g>
</g>
</svg>
